<svg width="160" height="70" viewBox="0 0 160 70" fill="none" xmlns="http://www.w3.org/2000/svg">
<path d="M21.8657 69.5414V0L26.3483 26.7866C27.7392 27.3761 29.2158 27.6611 30.6133 28.2506C36.1241 30.5697 40.6528 35.357 42.5974 40.9281C47.4689 54.8817 36.869 69.6386 21.8657 69.5349V69.5414Z" fill="#ACADAD"/>
<path d="M17.4625 26.9485L10.9497 66.704C1.7473 61.3985 -2.36609 50.4507 1.37815 40.507C3.9556 33.6662 10.1586 28.3866 17.4625 26.955V26.9485Z" fill="#ACADAD"/>
<path d="M131.055 36.7433C116.586 38.1425 119.697 59.3969 134.285 56.7474C146.685 54.4995 144.529 35.4347 131.055 36.7433ZM131.464 54.0849C124.397 53.2492 124.186 40.669 130.627 39.6066C140.528 37.9741 140.449 55.1473 131.464 54.0849Z" fill="#ACADAD"/>
<path d="M88.893 47.8724C95.4257 46.4213 95.9662 38.7773 88.9458 37.5594C88.3788 37.4623 87.2516 37.3392 86.7045 37.3003C84.8456 37.1772 82.7427 37.3003 80.8574 37.3003C80.8377 37.3003 80.541 37.5853 80.541 37.6113V56.0865C80.541 56.0865 80.8311 56.3975 80.8574 56.3975H84.516V48.3907C86.5924 50.0231 90.4224 56.3975 93.1844 56.3975H97.0473L88.8996 47.8724H88.893ZM84.5094 46.5379V39.5547C91.9253 38.9846 91.4639 46.6545 84.5094 46.5379Z" fill="#ACADAD"/>
<path d="M115.636 37.5077V40.9993C114.872 40.7078 114.18 40.2738 113.382 40.0341C109.75 38.9199 105.669 39.8722 104.107 43.5322C102.406 47.5097 103.903 53.4825 108.86 54.1238C109.387 54.195 112.914 54.2145 112.914 53.625V46.849C112.914 46.849 113.204 46.538 113.23 46.538H116.572C116.572 46.538 116.889 46.8231 116.889 46.849V55.2639C116.889 55.9311 112.327 56.7603 111.569 56.8121C104.621 57.311 98.4182 53.5019 99.1565 46.0522C99.9278 38.2138 108.847 35.4347 115.636 37.5077Z" fill="#ACADAD"/>
<path d="M66.8562 36.6914L57.1396 56.3975H60.7982L62.8087 51.9018L70.1719 51.9147C70.8048 52.1285 71.7738 55.7691 72.5055 56.3975H76.5793L66.8628 36.6914H66.8562ZM64.0348 49.4142C64.3315 49.0191 66.4013 43.6099 66.7441 43.869C67.3638 45.7671 68.5503 47.5032 69.0447 49.4142H64.0282H64.0348Z" fill="#ACADAD"/>
<path d="M158.675 40.9929C158.53 41.1549 157.535 40.3581 157.258 40.2285C155.854 39.5937 154.265 39.3669 152.716 39.5483C150.686 39.788 149.783 42.0424 151.371 43.3444C153.784 45.3137 159.334 45.5793 159.908 49.7317C160.969 57.324 152.327 57.5572 146.974 56.1838V52.6922C149.315 53.5343 151.984 54.804 154.496 53.8194C155.926 53.2558 156.533 51.8824 156.071 50.4249C155.353 48.1317 147.541 47.5163 146.816 43.3056C145.676 36.6656 154.16 35.7522 158.675 37.8122V40.9929Z" fill="#ACADAD"/>
</svg>
