<svg width="129" height="45" viewBox="0 0 129 45" fill="none" xmlns="http://www.w3.org/2000/svg">
<path d="M88.0855 21.7665V29.2505H80.3623C74.0292 29.2505 67.9266 20.5809 68.0825 14.5587C68.5504 -3.77737 96.263 -4.26912 98.1073 12.4098C98.5684 16.5661 98.6091 27.8359 98.0734 31.918C96.6156 42.9655 80.247 48.7991 73.0799 39.4626C74.002 38.8362 77.7992 34.1477 78.2535 34.2555C82.3897 38.8833 89.5433 35.8789 90.4994 30.1868C90.9944 27.2565 90.9741 17.1117 90.5604 14.1074C89.1501 3.76723 73.6766 7.10841 76.1854 16.7884C76.6736 18.6678 79.7046 21.7665 81.6235 21.7665H88.0923H88.0855Z" fill="#ACADAD"/>
<path d="M51.3546 29.2438H43.4212V12.4099C43.4212 11.5746 41.2446 9.27755 40.3767 8.78581C34.0029 5.18191 26.4492 11.0627 29.7175 17.745C31.8805 22.1707 37.0745 21.8609 41.3328 21.7666V29.2505H33.196C31.0804 29.2505 26.4831 26.1249 25.0456 24.4813C14.9356 12.9084 26.2051 -3.42028 40.9056 0.78314C45.4893 2.09671 51.3546 7.84273 51.3546 12.8276V29.2505V29.2438Z" fill="#ACADAD"/>
<path d="M128.993 29.2437H121.894V14.9022C121.894 12.6321 119.907 9.5604 117.819 8.57017C109.77 4.76419 103.03 14.4779 109.363 19.9005C110.068 20.5068 112.571 21.7597 113.344 21.7597H119.399V29.2437H111.262C108.617 29.2437 103.681 25.5455 102.108 23.3967C92.4997 10.261 108.075 -5.87909 122.192 2.14378C124.62 3.52472 129 8.32093 129 11.1636V29.2505L128.993 29.2437Z" fill="#ACADAD"/>
<path d="M27.5612 0.143066C26.0559 1.75977 24.2319 3.04639 22.7604 4.71024C22.279 5.25588 21.3433 7.04772 21.2212 7.12182C20.5839 7.49231 16.2442 7.09488 14.8813 7.24981C5.15104 8.36803 5.55788 20.6415 13.2065 21.7193C15.1661 21.9955 19.4922 21.2814 20.8958 21.9618C21.2551 22.1369 24.7404 26.886 26.1101 27.9975C26.7746 28.5364 27.8188 28.5566 27.9951 29.2437H11.9249C7.11744 29.2437 0.994493 22.6421 0.201155 18.0413C-1.09395 10.5843 3.97121 0.143066 12.325 0.143066H27.5612Z" fill="#ACADAD"/>
<path d="M53.4428 13.2387C54.4464 4.78467 61.7831 -0.833366 70.2386 0.25117C75.6021 0.938268 71.9608 2.09017 70.3403 3.87527C69.6215 4.66341 68.4281 7.18277 68.0484 7.4118C66.8075 8.16626 65.0513 7.49264 63.2409 9.27101C62.1424 10.3555 60.9626 13.4475 60.9626 14.8958V29.2373H53.4496C53.8836 24.1716 52.8597 18.1763 53.4496 13.2319L53.4428 13.2387Z" fill="#ACADAD"/>
</svg>
