<svg width="162" height="66" viewBox="0 0 162 66" fill="none" xmlns="http://www.w3.org/2000/svg">
<path d="M0.116267 62L1.96668 51.4692H8.16482L7.98429 52.4922H3.04985L2.40296 56.193H6.88608L6.70555 57.1859H2.22243L1.56049 60.977H6.47989L6.29936 62H0.116267ZM13.3388 65.3097L14.1361 60.7664C13.8352 61.1575 13.4441 61.4935 12.9627 61.7743C12.4913 62.0451 11.9247 62.1805 11.2627 62.1805C10.6008 62.1805 10.0391 62.0251 9.57778 61.7142C9.11643 61.4033 8.77042 60.982 8.53975 60.4505C8.30907 59.9189 8.21379 59.3272 8.25391 58.6753C8.284 58.0334 8.40936 57.4417 8.63001 56.9001C8.86069 56.3585 9.16658 55.8921 9.5477 55.501C9.93884 55.0998 10.3851 54.7889 10.8866 54.5683C11.3981 54.3476 11.9397 54.2373 12.5114 54.2373C12.9627 54.2373 13.3538 54.3025 13.6848 54.4329C14.0158 54.5532 14.2916 54.7237 14.5122 54.9444C14.7429 55.155 14.9184 55.3957 15.0388 55.6665L15.3848 54.4178H16.5281L14.6025 65.3097H13.3388ZM11.6238 61.0823C12.1754 61.0823 12.6668 60.9369 13.0981 60.646C13.5394 60.3452 13.8904 59.944 14.1512 59.4425C14.4119 58.931 14.5574 58.3593 14.5874 57.7275C14.6175 57.2461 14.5523 56.8299 14.3919 56.4788C14.2414 56.1178 14.0057 55.837 13.6848 55.6364C13.3739 55.4358 12.9928 55.3355 12.5415 55.3355C11.9999 55.3355 11.5084 55.4759 11.0671 55.7567C10.6259 56.0275 10.2698 56.4086 9.99902 56.9001C9.73825 57.3915 9.59283 57.9532 9.56274 58.585C9.53265 59.0664 9.59784 59.4977 9.75831 59.8788C9.91878 60.2599 10.1595 60.5558 10.4804 60.7664C10.8014 60.977 11.1825 61.0823 11.6238 61.0823ZM19.7483 62.1805C19.1164 62.1805 18.6049 62.0451 18.2138 61.7743C17.8326 61.4935 17.5719 61.1074 17.4315 60.6159C17.3011 60.1245 17.2961 59.5579 17.4164 58.916L18.2138 54.4178H19.4775L18.6952 58.8257C18.5648 59.5478 18.6149 60.1095 18.8456 60.5106C19.0763 60.9018 19.5176 61.0974 20.1695 61.0974C20.5907 61.0974 20.9869 61.0021 21.358 60.8115C21.729 60.6109 22.05 60.3251 22.3208 59.954C22.5916 59.5729 22.7771 59.1115 22.8774 58.57L23.6146 54.4178H24.8783L23.5544 62H22.411L22.5464 60.6761C22.2456 61.1475 21.8444 61.5186 21.3429 61.7894C20.8515 62.0501 20.3199 62.1805 19.7483 62.1805ZM25.483 62L26.8219 54.4178H28.0856L26.7467 62H25.483ZM27.89 52.8081C27.6393 52.8081 27.4337 52.7279 27.2732 52.5674C27.1127 52.4069 27.0275 52.2013 27.0175 51.9506C27.0175 51.6999 27.0977 51.4943 27.2582 51.3338C27.4287 51.1733 27.6393 51.0931 27.89 51.0931C28.1307 51.0931 28.3363 51.1733 28.5068 51.3338C28.6773 51.4842 28.7626 51.6898 28.7626 51.9506C28.7726 52.2013 28.6873 52.4069 28.5068 52.5674C28.3363 52.7279 28.1307 52.8081 27.89 52.8081ZM28.0888 65.3097L30.0144 54.4178H31.1878L31.0675 55.6514C31.2781 55.3907 31.5188 55.155 31.7896 54.9444C32.0604 54.7337 32.3713 54.5632 32.7223 54.4329C33.0834 54.3025 33.4896 54.2373 33.9409 54.2373C34.6028 54.2373 35.1645 54.3877 35.6258 54.6886C36.0872 54.9895 36.4332 55.4007 36.6638 55.9222C36.8945 56.4437 36.9898 57.0305 36.9497 57.6824C36.9296 58.3242 36.8043 58.921 36.5736 59.4726C36.3429 60.0142 36.032 60.4906 35.6409 60.9018C35.2597 61.303 34.8134 61.6189 34.3019 61.8496C33.7904 62.0702 33.2338 62.1805 32.632 62.1805C32.2309 62.1805 31.8648 62.1153 31.5338 61.985C31.2029 61.8445 30.922 61.669 30.6914 61.4584C30.4607 61.2378 30.2902 60.9971 30.1799 60.7363L29.3524 65.3097H28.0888ZM32.7073 61.0823C33.2489 61.0823 33.7353 60.9419 34.1665 60.6611C34.6078 60.3803 34.9589 59.9941 35.2196 59.5027C35.4804 59.0113 35.6258 58.4496 35.6559 57.8178C35.686 57.3364 35.6158 56.9101 35.4453 56.539C35.2848 56.1579 35.0491 55.862 34.7382 55.6514C34.4273 55.4408 34.0512 55.3355 33.6099 55.3355C33.0583 55.3355 32.5618 55.4809 32.1206 55.7718C31.6793 56.0626 31.3232 56.4588 31.0524 56.9603C30.7816 57.4517 30.6362 58.0133 30.6161 58.6452C30.5861 59.1366 30.6513 59.5679 30.8117 59.939C30.9822 60.3 31.2279 60.5808 31.5489 60.7814C31.8698 60.982 32.2559 61.0823 32.7073 61.0823ZM41.1932 62.1805C40.5412 62.1805 39.9696 62.0351 39.4781 61.7443C38.9967 61.4434 38.6307 61.0322 38.3799 60.5106C38.1292 59.9791 38.0189 59.3773 38.049 58.7054C38.079 58.0635 38.2094 57.4717 38.4401 56.9302C38.6808 56.3785 39.0017 55.9072 39.4029 55.516C39.8141 55.1149 40.2805 54.8039 40.802 54.5833C41.3336 54.3526 41.8952 54.2373 42.4869 54.2373C43.1389 54.2373 43.7055 54.3827 44.1869 54.6736C44.6784 54.9644 45.0494 55.3656 45.3002 55.8771C45.5609 56.3886 45.6713 56.9903 45.6311 57.6824C45.6011 58.3343 45.4657 58.936 45.225 59.4876C44.9943 60.0292 44.6733 60.5006 44.2621 60.9018C43.861 61.303 43.3996 61.6189 42.8781 61.8496C42.3566 62.0702 41.7949 62.1805 41.1932 62.1805ZM41.3586 61.0974C41.9002 61.0974 42.3866 60.9569 42.8179 60.6761C43.2592 60.3953 43.6152 60.0042 43.886 59.5027C44.1568 58.9912 44.3073 58.4095 44.3374 57.7576C44.3674 57.226 44.2922 56.7847 44.1117 56.4337C43.9412 56.0727 43.6955 55.7968 43.3745 55.6063C43.0636 55.4157 42.7126 55.3205 42.3215 55.3205C41.7899 55.3205 41.3085 55.4659 40.8772 55.7567C40.446 56.0376 40.0949 56.4287 39.8242 56.9302C39.5534 57.4316 39.4029 58.0133 39.3728 58.6753C39.3427 59.1868 39.4129 59.623 39.5834 59.9841C39.7539 60.3452 39.9946 60.621 40.3056 60.8115C40.6265 61.0021 40.9775 61.0974 41.3586 61.0974ZM49.2673 62.1805C48.6255 62.1805 48.0839 62.0752 47.6426 61.8646C47.2013 61.644 46.8753 61.3381 46.6647 60.9469C46.4641 60.5558 46.3839 60.0894 46.424 59.5478H47.7028C47.6927 59.8286 47.7429 60.0894 47.8532 60.3301C47.9635 60.5608 48.1491 60.7513 48.4098 60.9018C48.6706 61.0422 49.0166 61.1124 49.4479 61.1124C49.8089 61.1124 50.1198 61.0572 50.3806 60.9469C50.6414 60.8366 50.8419 60.6862 50.9824 60.4956C51.1328 60.305 51.218 60.0694 51.2381 59.7885C51.2481 59.5378 51.188 59.3422 51.0576 59.2018C50.9372 59.0514 50.7517 58.931 50.5009 58.8408C50.2502 58.7505 49.9493 58.6753 49.5983 58.6151C49.2874 58.5549 48.9865 58.4747 48.6957 58.3744C48.4148 58.2741 48.1641 58.1487 47.9435 57.9983C47.7228 57.8378 47.5523 57.6422 47.432 57.4116C47.3116 57.1709 47.2615 56.89 47.2815 56.5691C47.3016 56.1278 47.442 55.7317 47.7028 55.3806C47.9735 55.0296 48.3346 54.7538 48.7859 54.5532C49.2473 54.3426 49.7688 54.2373 50.3505 54.2373C51.1629 54.2373 51.7997 54.4379 52.2611 54.839C52.7325 55.2302 52.9481 55.7918 52.908 56.524H51.6443C51.6643 56.1429 51.549 55.847 51.2983 55.6364C51.0475 55.4157 50.6815 55.3054 50.2001 55.3054C49.7287 55.3054 49.3426 55.4107 49.0417 55.6213C48.7508 55.8319 48.6004 56.0927 48.5904 56.4036C48.5803 56.6142 48.6305 56.7948 48.7408 56.9452C48.8611 57.0856 49.0417 57.206 49.2824 57.3063C49.5231 57.3965 49.824 57.4768 50.185 57.547C50.526 57.6172 50.8419 57.7024 51.1328 57.8027C51.4236 57.903 51.6794 58.0334 51.9 58.1939C52.1207 58.3443 52.2862 58.5399 52.3965 58.7806C52.5168 59.0113 52.567 59.2971 52.5469 59.6381C52.5269 60.1596 52.3714 60.6109 52.0806 60.9921C51.7997 61.3732 51.4136 61.669 50.9222 61.8796C50.4408 62.0802 49.8892 62.1805 49.2673 62.1805ZM60.1759 62L61.8458 52.4922H58.7166L58.8972 51.4692H66.4342L66.2537 52.4922H63.1095L61.4245 62H60.1759ZM67.9002 62.1805C67.2683 62.1805 66.7167 62.0401 66.2453 61.7593C65.784 61.4785 65.433 61.0823 65.1923 60.5708C64.9616 60.0593 64.8613 59.4626 64.8914 58.7806C64.9215 58.1287 65.0518 57.5319 65.2825 56.9903C65.5132 56.4387 65.8241 55.9573 66.2152 55.5461C66.6164 55.1349 67.0778 54.814 67.5993 54.5833C68.1208 54.3526 68.6875 54.2373 69.2993 54.2373C69.9813 54.2373 70.5429 54.3777 70.9842 54.6585C71.4355 54.9393 71.7665 55.3154 71.9771 55.7868C72.1877 56.2482 72.278 56.7597 72.2479 57.3213C72.2379 57.4918 72.2128 57.6874 72.1727 57.908C72.1426 58.1186 72.1075 58.3142 72.0674 58.4947H65.8692L66.0347 57.5169H70.9992C71.0695 57.0455 71.0293 56.6493 70.8789 56.3284C70.7285 55.9974 70.5028 55.7467 70.2019 55.5762C69.901 55.3957 69.54 55.3054 69.1187 55.3054C68.6875 55.3054 68.2713 55.4057 67.8701 55.6063C67.4789 55.7968 67.1379 56.0827 66.8471 56.4638C66.5562 56.8349 66.3607 57.3012 66.2604 57.8629L66.1852 58.2841C66.0748 58.8458 66.0849 59.3422 66.2152 59.7735C66.3456 60.2047 66.5713 60.5357 66.8922 60.7664C67.2232 60.9971 67.6244 61.1124 68.0958 61.1124C68.6273 61.1124 69.0836 60.9971 69.4648 60.7664C69.8559 60.5257 70.1618 60.2047 70.3824 59.8036H71.6311C71.4205 60.2549 71.1346 60.6611 70.7736 61.0221C70.4226 61.3832 70.0013 61.669 69.5099 61.8796C69.0285 62.0802 68.4919 62.1805 67.9002 62.1805ZM76.2543 62.1805C75.6225 62.1805 75.0658 62.0401 74.5844 61.7593C74.103 61.4684 73.7369 61.0673 73.4862 60.5558C73.2455 60.0443 73.1402 59.4475 73.1703 58.7655C73.2004 58.1036 73.3358 57.4968 73.5765 56.9452C73.8172 56.3936 74.1431 55.9172 74.5543 55.516C74.9655 55.1149 75.4319 54.8039 75.9534 54.5833C76.485 54.3526 77.0516 54.2373 77.6534 54.2373C78.5561 54.2373 79.2681 54.478 79.7897 54.9594C80.3212 55.4308 80.597 56.0676 80.6171 56.87H79.3233C79.3133 56.3585 79.1277 55.9724 78.7667 55.7116C78.4156 55.4508 77.9844 55.3205 77.4729 55.3205C76.9413 55.3205 76.4549 55.4609 76.0136 55.7417C75.5723 56.0225 75.2113 56.4137 74.9304 56.9151C74.6596 57.4066 74.5092 57.9883 74.4791 58.6602C74.4591 59.0514 74.4942 59.4024 74.5844 59.7133C74.6747 60.0142 74.8101 60.2699 74.9906 60.4806C75.1711 60.6811 75.3818 60.8366 75.6225 60.9469C75.8732 61.0572 76.149 61.1124 76.4499 61.1124C76.7909 61.1124 77.1168 61.0522 77.4277 60.9319C77.7487 60.8115 78.0345 60.636 78.2853 60.4053C78.536 60.1747 78.7265 59.8888 78.8569 59.5478H80.1507C79.9602 60.0593 79.6743 60.5157 79.2932 60.9168C78.9121 61.308 78.4608 61.6189 77.9392 61.8496C77.4177 62.0702 76.8561 62.1805 76.2543 62.1805ZM81.2071 62L82.531 54.4178H83.6743L83.5239 55.7417C83.8448 55.2703 84.251 54.9042 84.7424 54.6435C85.2339 54.3727 85.7654 54.2373 86.3371 54.2373C86.9589 54.2373 87.4604 54.3727 87.8415 54.6435C88.2326 54.9042 88.4984 55.2753 88.6388 55.7567C88.7792 56.2381 88.7893 56.8098 88.6689 57.4717L87.8716 62H86.6079L87.3751 57.6071C87.5055 56.875 87.4453 56.3134 87.1946 55.9222C86.9439 55.521 86.5026 55.3205 85.8707 55.3205C85.4595 55.3205 85.0684 55.4207 84.6973 55.6213C84.3362 55.8219 84.0253 56.1078 83.7646 56.4788C83.5038 56.8499 83.3132 57.3063 83.1929 57.8478L82.4708 62H81.2071ZM89.6651 62L91.004 54.4178H92.2677L90.9288 62H89.6651ZM92.0722 52.8081C91.8214 52.8081 91.6158 52.7279 91.4554 52.5674C91.2949 52.4069 91.2096 52.2013 91.1996 51.9506C91.1996 51.6999 91.2798 51.4943 91.4403 51.3338C91.6108 51.1733 91.8214 51.0931 92.0722 51.0931C92.3129 51.0931 92.5185 51.1733 92.689 51.3338C92.8595 51.4842 92.9447 51.6898 92.9447 51.9506C92.9547 52.2013 92.8695 52.4069 92.689 52.5674C92.5185 52.7279 92.3129 52.8081 92.0722 52.8081ZM96.8928 62L98.7583 51.4692H100.218L102.655 58.8257L107.664 51.4692H109.154L107.303 62H106.04L107.499 53.7258L102.835 60.5257H101.887L99.6158 53.7559L98.1565 62H96.8928ZM112.49 62.1805C111.859 62.1805 111.307 62.0401 110.836 61.7593C110.374 61.4785 110.023 61.0823 109.783 60.5708C109.552 60.0593 109.452 59.4626 109.482 58.7806C109.512 58.1287 109.642 57.5319 109.873 56.9903C110.103 56.4387 110.414 55.9573 110.806 55.5461C111.207 55.1349 111.668 54.814 112.19 54.5833C112.711 54.3526 113.278 54.2373 113.89 54.2373C114.572 54.2373 115.133 54.3777 115.574 54.6585C116.026 54.9393 116.357 55.3154 116.567 55.7868C116.778 56.2482 116.868 56.7597 116.838 57.3213C116.828 57.4918 116.803 57.6874 116.763 57.908C116.733 58.1186 116.698 58.3142 116.658 58.4947H110.459L110.625 57.5169H115.59C115.66 57.0455 115.62 56.6493 115.469 56.3284C115.319 55.9974 115.093 55.7467 114.792 55.5762C114.491 55.3957 114.13 55.3054 113.709 55.3054C113.278 55.3054 112.862 55.4057 112.46 55.6063C112.069 55.7968 111.728 56.0827 111.437 56.4638C111.147 56.8349 110.951 57.3012 110.851 57.8629L110.775 58.2841C110.665 58.8458 110.675 59.3422 110.806 59.7735C110.936 60.2047 111.162 60.5357 111.482 60.7664C111.813 60.9971 112.215 61.1124 112.686 61.1124C113.218 61.1124 113.674 60.9971 114.055 60.7664C114.446 60.5257 114.752 60.2047 114.973 59.8036H116.221C116.011 60.2549 115.725 60.6611 115.364 61.0221C115.013 61.3832 114.592 61.669 114.1 61.8796C113.619 62.0802 113.082 62.1805 112.49 62.1805ZM120.408 62C119.897 62 119.486 61.9198 119.175 61.7593C118.864 61.5988 118.653 61.3481 118.543 61.0071C118.443 60.6661 118.438 60.2298 118.528 59.6983L119.28 55.4859H118.061L118.257 54.4178H119.476L119.957 52.5824H121.07L120.739 54.4178H122.951L122.755 55.4859H120.544L119.791 59.6983C119.711 60.1696 119.756 60.4906 119.927 60.6611C120.097 60.8316 120.398 60.9168 120.83 60.9168H121.792L121.597 62H120.408ZM125.369 62.1805C124.807 62.1805 124.346 62.0852 123.985 61.8947C123.634 61.6941 123.378 61.4333 123.218 61.1124C123.057 60.7814 122.987 60.4304 123.007 60.0593C123.027 59.5177 123.193 59.0514 123.503 58.6602C123.814 58.2691 124.246 57.9682 124.797 57.7576C125.349 57.547 125.981 57.4417 126.693 57.4417H128.694C128.774 56.9603 128.769 56.5641 128.679 56.2532C128.598 55.9322 128.433 55.6966 128.182 55.5461C127.931 55.3856 127.605 55.3054 127.204 55.3054C126.723 55.3054 126.287 55.4258 125.895 55.6665C125.504 55.9072 125.224 56.2632 125.053 56.7346H123.744C123.905 56.193 124.165 55.7417 124.526 55.3806C124.898 55.0095 125.329 54.7287 125.82 54.5382C126.312 54.3376 126.828 54.2373 127.37 54.2373C128.052 54.2373 128.603 54.3677 129.025 54.6284C129.456 54.8792 129.747 55.2352 129.897 55.6966C130.058 56.1479 130.083 56.6844 129.972 57.3063L129.16 62H128.017L128.182 60.6611C128.042 60.8717 127.876 61.0723 127.686 61.2628C127.505 61.4434 127.3 61.6038 127.069 61.7443C126.838 61.8847 126.582 61.99 126.302 62.0602C126.021 62.1404 125.71 62.1805 125.369 62.1805ZM125.745 61.1124C126.096 61.1124 126.432 61.0422 126.753 60.9018C127.084 60.7513 127.375 60.5508 127.626 60.3C127.886 60.0493 128.092 59.7685 128.242 59.4576C128.403 59.1466 128.488 58.8207 128.498 58.4797L128.513 58.4195H126.618C126.146 58.4195 125.74 58.4847 125.399 58.6151C125.068 58.7354 124.812 58.911 124.632 59.1416C124.461 59.3623 124.366 59.6281 124.346 59.939C124.326 60.3 124.436 60.5859 124.677 60.7965C124.918 61.0071 125.274 61.1124 125.745 61.1124ZM126.046 53.801L125.986 52.8833L129.19 50.9727L129.265 52.0559L126.046 53.801ZM130.947 62L132.872 51.1683H134.136L132.21 62H130.947ZM134.145 62L135.484 54.4178H136.748L135.409 62H134.145ZM136.553 52.8081C136.302 52.8081 136.096 52.7279 135.936 52.5674C135.775 52.4069 135.69 52.2013 135.68 51.9506C135.68 51.6999 135.76 51.4943 135.921 51.3338C136.091 51.1733 136.302 51.0931 136.553 51.0931C136.793 51.0931 136.999 51.1733 137.169 51.3338C137.34 51.4842 137.425 51.6898 137.425 51.9506C137.435 52.2013 137.35 52.4069 137.169 52.5674C136.999 52.7279 136.793 52.8081 136.553 52.8081ZM140.738 62.1805C140.106 62.1805 139.549 62.0401 139.068 61.7593C138.587 61.4684 138.221 61.0673 137.97 60.5558C137.729 60.0443 137.624 59.4475 137.654 58.7655C137.684 58.1036 137.819 57.4968 138.06 56.9452C138.301 56.3936 138.627 55.9172 139.038 55.516C139.449 55.1149 139.916 54.8039 140.437 54.5833C140.969 54.3526 141.535 54.2373 142.137 54.2373C143.04 54.2373 143.752 54.478 144.273 54.9594C144.805 55.4308 145.081 56.0676 145.101 56.87H143.807C143.797 56.3585 143.611 55.9724 143.25 55.7116C142.899 55.4508 142.468 55.3205 141.957 55.3205C141.425 55.3205 140.939 55.4609 140.497 55.7417C140.056 56.0225 139.695 56.4137 139.414 56.9151C139.143 57.4066 138.993 57.9883 138.963 58.6602C138.943 59.0514 138.978 59.4024 139.068 59.7133C139.158 60.0142 139.294 60.2699 139.474 60.4806C139.655 60.6811 139.865 60.8366 140.106 60.9469C140.357 61.0572 140.633 61.1124 140.934 61.1124C141.275 61.1124 141.6 61.0522 141.911 60.9319C142.232 60.8115 142.518 60.636 142.769 60.4053C143.02 60.1747 143.21 59.8888 143.341 59.5478H144.634C144.444 60.0593 144.158 60.5157 143.777 60.9168C143.396 61.308 142.944 61.6189 142.423 61.8496C141.901 62.0702 141.34 62.1805 140.738 62.1805ZM149.136 62.1805C148.484 62.1805 147.912 62.0351 147.421 61.7443C146.939 61.4434 146.573 61.0322 146.323 60.5106C146.072 59.9791 145.962 59.3773 145.992 58.7054C146.022 58.0635 146.152 57.4717 146.383 56.9302C146.623 56.3785 146.944 55.9072 147.346 55.516C147.757 55.1149 148.223 54.8039 148.745 54.5833C149.276 54.3526 149.838 54.2373 150.43 54.2373C151.081 54.2373 151.648 54.3827 152.13 54.6736C152.621 54.9644 152.992 55.3656 153.243 55.8771C153.504 56.3886 153.614 56.9903 153.574 57.6824C153.544 58.3343 153.408 58.936 153.168 59.4876C152.937 60.0292 152.616 60.5006 152.205 60.9018C151.804 61.303 151.342 61.6189 150.821 61.8496C150.299 62.0702 149.738 62.1805 149.136 62.1805ZM149.301 61.0974C149.843 61.0974 150.329 60.9569 150.761 60.6761C151.202 60.3953 151.558 60.0042 151.829 59.5027C152.099 58.9912 152.25 58.4095 152.28 57.7576C152.31 57.226 152.235 56.7847 152.054 56.4337C151.884 56.0727 151.638 55.7968 151.317 55.6063C151.006 55.4157 150.655 55.3205 150.264 55.3205C149.733 55.3205 149.251 55.4659 148.82 55.7567C148.389 56.0376 148.038 56.4287 147.767 56.9302C147.496 57.4316 147.346 58.0133 147.315 58.6753C147.285 59.1868 147.356 59.623 147.526 59.9841C147.697 60.3452 147.937 60.621 148.248 60.8115C148.569 61.0021 148.92 61.0974 149.301 61.0974ZM157.21 62.1805C156.568 62.1805 156.027 62.0752 155.585 61.8646C155.144 61.644 154.818 61.3381 154.607 60.9469C154.407 60.5558 154.327 60.0894 154.367 59.5478H155.645C155.635 59.8286 155.686 60.0894 155.796 60.3301C155.906 60.5608 156.092 60.7513 156.352 60.9018C156.613 61.0422 156.959 61.1124 157.391 61.1124C157.752 61.1124 158.062 61.0572 158.323 60.9469C158.584 60.8366 158.785 60.6862 158.925 60.4956C159.075 60.305 159.161 60.0694 159.181 59.7885C159.191 59.5378 159.131 59.3422 159 59.2018C158.88 59.0514 158.694 58.931 158.444 58.8408C158.193 58.7505 157.892 58.6753 157.541 58.6151C157.23 58.5549 156.929 58.4747 156.638 58.3744C156.357 58.2741 156.107 58.1487 155.886 57.9983C155.665 57.8378 155.495 57.6422 155.375 57.4116C155.254 57.1709 155.204 56.89 155.224 56.5691C155.244 56.1278 155.385 55.7317 155.645 55.3806C155.916 55.0296 156.277 54.7538 156.729 54.5532C157.19 54.3426 157.711 54.2373 158.293 54.2373C159.106 54.2373 159.742 54.4379 160.204 54.839C160.675 55.2302 160.891 55.7918 160.851 56.524H159.587C159.607 56.1429 159.492 55.847 159.241 55.6364C158.99 55.4157 158.624 55.3054 158.143 55.3054C157.671 55.3054 157.285 55.4107 156.984 55.6213C156.693 55.8319 156.543 56.0927 156.533 56.4036C156.523 56.6142 156.573 56.7948 156.683 56.9452C156.804 57.0856 156.984 57.206 157.225 57.3063C157.466 57.3965 157.767 57.4768 158.128 57.547C158.469 57.6172 158.785 57.7024 159.075 57.8027C159.366 57.903 159.622 58.0334 159.843 58.1939C160.063 58.3443 160.229 58.5399 160.339 58.7806C160.459 59.0113 160.51 59.2971 160.49 59.6381C160.47 60.1596 160.314 60.6109 160.023 60.9921C159.742 61.3732 159.356 61.669 158.865 61.8796C158.383 62.0802 157.832 62.1805 157.21 62.1805Z" fill="white"/>
<path d="M0.649902 44C63.1338 44 98.166 44 160.65 44" stroke="white" stroke-width="1.3" stroke-linecap="round"/>
<path d="M126.363 0L126.764 20.6035L141.3 0H160.65L149.324 34H137.388L145.111 9.40088L128.168 34H116.542L116.241 7.59912L107.514 34H95.2856L106.812 0H126.363Z" fill="white"/>
<path d="M51.7794 0C50.7931 1.97694 50.4587 4.92149 49.4724 6.79833C49.3554 7.01521 49.322 7.28214 49.0378 7.36555L24.6391 7.43229C24.0707 7.62414 22.9673 12.0118 22.4993 12.8042H45.5606L43.1617 19.711L20.2341 19.7944L17.8937 26.6011H43.5545L40.8464 34H0.649902L12.0761 0H51.7794Z" fill="white"/>
<path d="M101.505 3.20312C101.622 3.31991 101.095 5.00489 100.803 5.20509H54.7886L55.1898 3.20312H101.505Z" fill="white"/>
<path d="M102.307 0.200195L101.605 2.00196H55.5908C55.7078 1.41806 55.666 0.625612 56.0923 0.200195H102.307Z" fill="white"/>
<path d="M100.301 6.39795L99.6993 8.19972H53.585C53.6184 7.59913 53.6602 6.84005 54.0865 6.39795H100.301Z" fill="white"/>
<path d="M76.0359 31.7979L75.6347 33.7998H60.397L60.7982 31.7979H76.0359Z" fill="white"/>
<path d="M77.2395 28.4028L76.8383 30.4048H61.6006L62.0018 28.4028H77.2395Z" fill="white"/>
<path d="M78.6442 24.5991L78.0424 26.6011H62.8047L63.5068 24.5991H78.6442Z" fill="white"/>
<path d="M79.8474 20.6035C79.9561 20.7036 79.5131 22.4386 79.1453 22.6055H64.2085L64.6097 20.6035H79.8474Z" fill="white"/>
<path d="M83.6593 9.60107L83.0575 11.603H67.8198L68.4216 9.60107H83.6593Z" fill="white"/>
<path d="M82.4553 13.0044L81.8535 14.998H66.8164L67.2176 13.0044H82.4553Z" fill="white"/>
<path d="M81.2517 16.5996L80.6499 18.6016H65.6128L66.014 16.5996H81.2517Z" fill="white"/>
</svg>
