<svg width="119" height="26" viewBox="0 0 119 26" fill="none" xmlns="http://www.w3.org/2000/svg">
<path d="M93.4992 0L93.7976 15.3552L104.608 0H119L110.576 25.3393H101.699L107.443 7.00622L94.842 25.3393H86.1946L85.9708 5.66341L79.4805 25.3393H70.3855L78.9583 0H93.4992Z" fill="white"/>
<path d="M38.0275 0C37.294 1.47336 37.0453 3.66785 36.3117 5.06661C36.2247 5.22824 36.1998 5.42718 35.9885 5.48934L17.8419 5.53908C17.4192 5.68206 16.5986 8.95204 16.2504 9.54263H33.4023L31.6181 14.6901L14.5657 14.7522L12.825 19.825H31.9103L29.8961 25.3393H0L8.49823 0H38.0275Z" fill="white"/>
<path d="M75.0105 2.38721C75.0975 2.47424 74.7059 3.73001 74.4883 3.87921H40.2654L40.5638 2.38721H75.0105Z" fill="white"/>
<path d="M75.6074 0.149414L75.0852 1.49222H40.8623C40.9493 1.05705 40.9183 0.466466 41.2353 0.149414H75.6074Z" fill="white"/>
<path d="M74.1155 4.76855L73.6679 6.11136H39.3704C39.3952 5.66376 39.4263 5.09804 39.7434 4.76855H74.1155Z" fill="white"/>
<path d="M56.0685 23.6982L55.77 25.1903H44.437L44.7354 23.6982H56.0685Z" fill="white"/>
<path d="M56.9635 21.168L56.6651 22.66H45.332L45.6304 21.168H56.9635Z" fill="white"/>
<path d="M58.0079 18.3335L57.5603 19.8255H46.2273L46.7495 18.3335H58.0079Z" fill="white"/>
<path d="M58.9032 15.3555C58.984 15.4301 58.6545 16.7231 58.381 16.8475H47.2717L47.5701 15.3555H58.9032Z" fill="white"/>
<path d="M61.7379 7.15576L61.2903 8.64777H49.9573L50.4049 7.15576H61.7379Z" fill="white"/>
<path d="M60.8429 9.69189L60.3953 11.1777H49.2114L49.5098 9.69189H60.8429Z" fill="white"/>
<path d="M59.9476 12.3716L59.5 13.8636H48.3162L48.6146 12.3716H59.9476Z" fill="white"/>
</svg>
