<svg width="162" height="25" viewBox="0 0 162 25" fill="none" xmlns="http://www.w3.org/2000/svg">
<path d="M162 24.8438H155.961V9.95481C155.961 9.89017 155.767 9.07138 155.724 8.92055C155.03 6.45879 152.707 5.71542 150.508 6.87896C149.927 7.18601 148.653 8.33878 148.653 9.00135V24.8492H142.614V9.00135C142.614 8.43035 141.581 7.33145 141.076 7.04057C139.624 6.20023 137.693 5.9686 136.429 7.26681C136.187 7.5146 135.456 8.73201 135.456 9.00135V24.8492H129.417V7.72469C129.417 6.9867 130.638 4.84815 131.165 4.2179C134.042 0.727272 138.586 -0.646354 142.829 1.13667C143.915 1.59454 144.684 2.29482 145.69 2.8335C148.911 0.350198 152.412 -0.479364 156.235 1.2444C159.171 2.57493 162.011 5.75852 162.011 9.15218V24.8385L162 24.8438Z" fill="#ACADAD"/>
<path d="M69.317 0V6.37255H56.6797C53.0122 6.37255 51.3612 12.2172 52.5497 15.1314C53.1143 16.5158 55.4805 18.6382 57.0023 18.6382H63.122V15.6109H57.4003V9.23831H69.3224V25.0054H57.0023C55.3245 25.0054 52.469 23.7664 51.0547 22.8399C44.6339 18.6275 43.9724 8.17712 49.8501 3.19435C51.1139 2.12239 54.932 0.00538677 56.5237 0.00538677H69.3224L69.317 0Z" fill="#ACADAD"/>
<path d="M31.4482 0.366201C21.3813 0.689407 16.3156 12.9659 22.7418 20.6205C28.2162 27.1438 38.5842 26.0072 42.5099 18.455C46.8066 10.1917 40.8428 0.064542 31.4482 0.366201ZM33.2658 18.9128C24.6509 20.7821 22.5913 7.18585 31.2815 6.25933C39.036 5.43515 40.8052 17.2753 33.2658 18.9128Z" fill="#ACADAD"/>
<path d="M102.384 0.161621V6.29177C101.437 6.87354 99.9963 6.38873 98.9745 6.36718C96.845 6.31331 93.4679 6.09246 91.5696 6.9274C86.9879 8.93667 87.0363 16.0688 91.4674 18.1911C91.6234 18.2666 92.5483 18.6382 92.6075 18.6382H102.384V24.8492H91.4943C90.4833 24.8492 87.6601 23.5187 86.7566 22.91C80.1799 18.4766 80.1799 7.2937 86.5039 2.65031C87.5203 1.90155 90.8114 0.167008 91.9729 0.167008H102.384V0.161621Z" fill="#ACADAD"/>
<path d="M125.594 0.161621V6.53417C121.888 6.77119 116.64 5.26289 113.526 7.74081C110.413 10.2187 110.886 16.225 114.623 18.0834C114.892 18.2181 115.758 18.6382 115.978 18.6382H125.599V24.8492H114.865C114.209 24.8492 111.859 23.9496 111.182 23.6048C103.621 19.7641 103.104 8.06401 109.466 2.87655C110.466 2.06315 113.994 0.167008 115.188 0.167008H125.599L125.594 0.161621Z" fill="#ACADAD"/>
<path d="M6.20036 18.0726C6.24339 18.3366 6.89945 18.7891 7.07691 18.7891H19.241V25H6.28103C4.02244 25 1.95744 23.5456 0.924946 21.6064C0.779751 21.337 0 19.4894 0 19.3493V0.161621H5.96375L6.20036 0.398639V18.078V18.0726Z" fill="#ACADAD"/>
<path d="M79.1744 0V25H72.8934L72.6514 24.763V0H79.1744Z" fill="#ACADAD"/>
<path d="M125.594 9.39453H114.624V15.7671H125.594V9.39453Z" fill="#ACADAD"/>
</svg>
