<svg width="164" height="49" viewBox="0 0 164 49" fill="none" xmlns="http://www.w3.org/2000/svg">
<g clip-path="url(#clip0_577_1809)">
<path d="M164 25.8467C163.759 25.8467 163.74 26.1357 163.58 26.2895C163.221 26.6339 161.854 27.0828 161.31 27.298C155.286 29.7086 149.002 32.0824 142.879 34.2532C141.134 34.8682 139.248 35.9566 138.227 33.6567C137.689 32.4391 137.306 30.8586 136.848 29.5611C136.391 28.2635 135.747 26.9106 135.37 25.6499C135.154 24.9181 135.116 24.3216 135.617 23.6882C136.224 22.9318 139.05 22.3783 140.095 22.1016C145.365 20.7241 150.845 19.4327 156.189 18.3688C157.296 18.1474 159.559 17.5509 160.586 17.6985C161.075 17.7661 161.402 18.1228 161.631 18.5348C162.472 20.0353 163.239 22.692 163.79 24.3831C163.833 24.5122 163.771 24.6721 163.994 24.6291V25.8529L164 25.8467Z" fill="#ACADAD"/>
<path d="M97.1716 49L92.9844 48.1391L93.0029 24.3094C93.2008 23.9958 96.7572 23.2394 97.2953 23.2332C97.4252 23.2332 97.4375 23.2148 97.419 23.3562V31.2707L97.1716 34.0012L97.8272 32.9865C101.551 29.2906 107.03 30.8341 108.212 36.0244C109.492 41.6574 107.364 47.8685 101.062 48.8401C100.907 48.8647 100.728 48.7356 100.777 49H97.1716ZM100.845 34.6715C99.7136 34.7576 98.8044 35.5816 98.2787 36.5225C96.8933 39.0254 97.5551 42.34 97.4561 45.0889C100.171 45.9683 102.75 45.298 103.592 42.3769C104.229 40.1631 104.383 34.4009 100.845 34.6715Z" fill="#ACADAD"/>
<path d="M0 34.161C0.259768 34.2102 0.142254 34.0319 0.166994 33.8843C1.68849 25.0719 8.37442 21.5482 16.9962 23.4238C17.3117 23.4915 18.3013 23.6206 18.2889 24.0019L17.4477 27.8208C17.3611 28.0791 17.256 28.2451 16.9591 28.1959C16.6622 28.1467 16.1674 27.913 15.7654 27.8269C7.61367 26.1481 4.4779 31.7258 6.09836 39.0684C7.18691 44.0004 11.6524 44.9228 16.0809 43.7421C16.3221 43.6806 17.2251 43.2686 17.3364 43.2993C17.4787 43.3362 17.5591 43.6498 17.5962 43.779C17.8374 44.5846 18.2332 46.1343 18.3507 46.9399C18.4806 47.8316 18.091 47.7701 17.3055 47.9792C9.32071 50.1131 1.7256 47.9792 0.179363 39.1545C0.154624 39.0007 0.247398 38.8347 0.00618494 38.8839V34.1549L0 34.161Z" fill="#ACADAD"/>
<path d="M154.08 0C154.036 0.264433 154.216 0.141441 154.364 0.15989C155.032 0.245984 155.78 0.239834 156.331 0.658007C157.296 1.37751 157.951 4.26782 158.65 5.36245C158.786 6.01431 158.502 6.22954 157.896 6.28489C156.677 6.39558 155.211 6.29719 153.956 6.35869C147.078 6.71536 140.238 7.76694 133.564 9.40274C132.315 9.71022 131.01 10.1837 129.779 10.4482C128.969 10.6204 128.245 10.7249 127.744 9.92545C127.342 9.29204 126.315 6.20495 126.099 5.36245C125.697 3.7943 126.464 3.62826 127.763 3.22239C133.224 1.5005 140.448 0.368976 146.175 0.166039C146.336 0.166039 146.503 0.245984 146.46 0H154.086L154.08 0Z" fill="#ACADAD"/>
<path d="M25.6675 49C25.7169 48.7418 25.5376 48.8647 25.3891 48.834C22.006 48.2313 20.0082 46.2266 19.3093 42.8873C17.794 35.5816 22.1235 28.9892 30.1144 30.2684C33.6584 30.8403 35.7489 33.4108 36.3118 36.83C37.1838 42.1801 34.8459 47.807 29.0692 48.834C28.9146 48.8586 28.7414 48.7418 28.7909 49H25.6737H25.6675ZM27.2075 34.0996C22.7977 34.6899 22.6863 43.4162 26.2241 44.7384C28.9455 45.7592 30.9927 44.0189 31.5494 41.4299C32.2359 38.2382 31.5246 33.5153 27.2075 34.0996Z" fill="#ACADAD"/>
<path d="M51.5761 48.9999C51.6194 48.7355 51.44 48.8646 51.2916 48.84C43.1707 47.5732 43.0223 35.4093 48.9289 31.5658C53.2089 28.7862 59.9257 29.8439 61.7008 35.0587C63.6491 40.7902 61.3545 47.5178 54.9654 48.8216C54.817 48.8523 54.6438 48.7478 54.6933 48.9937H51.5761V48.9999ZM53.1161 34.1056C48.5269 34.6529 48.4712 43.8281 52.411 44.8674C55.5282 45.6914 57.3714 43.2254 57.5631 40.4027C57.7796 37.2972 57.0807 33.632 53.1161 34.1056Z" fill="#ACADAD"/>
<path d="M120.786 48.9999C120.835 48.7663 120.668 48.8523 120.526 48.8155C118.609 48.3112 117.205 47.0198 117.013 44.9658C116.469 39.1975 122.61 37.4817 127.261 37.5863V35.9136C127.261 35.7722 127.057 35.2187 126.977 35.0527C125.931 32.888 121.621 33.8043 119.839 34.4807C119.629 34.5607 118.578 35.1387 118.491 35.0527L118.176 31.2706C118.986 30.8525 120.019 30.6003 120.934 30.4282C125.375 29.5857 131.473 29.6472 131.857 35.4216C132.092 38.9084 131.949 42.6536 132.024 46.1773C132.042 46.9767 132.005 47.7823 132.024 48.5879L127.676 48.6679L127.719 45.7345C126.859 47.4133 125.4 48.3542 123.606 48.8216C123.464 48.8585 123.284 48.7355 123.334 48.9938H120.792L120.786 48.9999ZM127.267 40.6057C125.27 40.5811 121.225 40.7964 121.361 43.5821C121.466 45.7714 124.125 45.7776 125.542 44.7137C126.247 44.1848 127.274 42.672 127.274 41.7865V40.6057H127.267ZM127.799 45.5746V45.6546C127.855 45.63 127.855 45.5992 127.799 45.5746Z" fill="#ACADAD"/>
<path d="M155.947 8.17887C157.036 8.14198 159.398 7.98824 160.332 8.33876C160.914 8.554 161.136 8.95987 161.39 9.48874C162.12 11.0138 162.577 12.8095 163.307 14.3469C163.493 15.2632 163.109 15.5215 162.293 15.7121C160.506 16.1426 158.44 16.3271 156.603 16.6592C146.905 18.4241 137.287 20.6626 127.954 23.805C126.866 24.174 124.627 25.2133 123.606 25.201C122.907 25.1887 122.344 24.8566 122.017 24.2478C121.509 22.2922 120.885 20.3366 120.47 18.3626C120.279 17.4586 120.075 16.9175 120.693 16.1057C121.46 15.1095 124.534 14.2178 125.814 13.7812C135.042 10.6387 146.163 8.5171 155.935 8.17887H155.947Z" fill="#ACADAD"/>
<path d="M64.373 31.5966C64.7689 31.1538 68.5479 30.3297 68.7211 30.4958L68.5974 33.5952C70.6384 29.3274 77.9428 28.4664 79.3406 33.6751C80.7693 30.8709 83.8494 29.518 86.9295 30.2928C89.0633 30.8279 90.257 32.6789 90.4426 34.7882C90.8075 38.9576 90.3003 43.7236 90.4488 47.9914C90.455 48.2005 90.5477 48.3911 90.5354 48.6002H85.9461V36.9775C85.8472 35.5753 85.6926 34.0687 83.9422 34.0011C81.3322 33.9027 79.8292 37.1312 79.7117 39.3389V48.594H75.2029V36.3256C75.2029 36.1227 75.0235 35.4216 74.9369 35.2002C74.3494 33.6505 72.5681 33.7674 71.3682 34.5484C69.8529 35.5385 69.154 37.6109 68.9685 39.3389V48.594H64.373V31.5966Z" fill="#ACADAD"/>
<path d="M42.8864 23.2393V48.594H38.458V24.297C39.8682 23.7251 41.3649 23.3745 42.8864 23.2393Z" fill="#ACADAD"/>
<path d="M115.294 30.4098V48.5941H110.457V30.5758C112.047 30.2868 113.686 30.459 115.294 30.4098Z" fill="#ACADAD"/>
<path d="M62.8947 9.292V10.5158C62.4742 10.5035 61.6701 10.5096 61.3794 10.8417C60.7424 11.5858 61.4165 11.8933 61.7072 12.5513C62.8267 15.1218 60.6743 17.268 58.0952 17.1204C57.4582 17.0835 57.019 16.7515 56.4253 17.1635C55.7759 17.6124 55.8501 18.4242 56.6603 18.6271C58.6086 19.1191 63.2782 18.0552 63.3091 21.2345C63.34 24.4139 58.0148 24.4323 55.9305 23.7559C53.8462 23.0794 53.172 20.6319 55.3553 19.6418C55.4357 19.5249 54.978 19.1683 54.879 19.0207C54.1863 17.9814 54.6997 16.7699 55.8501 16.3825C55.9119 16.1673 55.714 16.2287 55.6027 16.0996C52.6958 12.7235 56.784 9.24895 60.2785 10.9216C60.4208 9.44574 61.6144 9.20591 62.9009 9.292H62.8947ZM59.9136 15.3801C60.996 14.3101 60.495 12.2377 59.023 11.7949C57.1551 11.2353 55.5718 13.0248 56.3758 14.8389C56.951 16.1427 58.9364 16.3456 59.9136 15.3801ZM56.4748 20.0784C55.6707 20.3551 55.1821 21.2714 55.714 22.0217C56.5428 23.1901 59.9693 23.0241 61.1444 22.4398C62.0721 21.9786 62.0845 20.7118 61.0764 20.3613C60.6929 20.226 59.9136 20.1706 59.493 20.146C58.5034 20.0845 57.4705 20.1214 56.4809 20.0845L56.4748 20.0784Z" fill="#ACADAD"/>
<path d="M7.50233 7.4165C10.6628 7.74858 12.0792 11.8627 9.62995 13.7752C9.4011 13.9535 8.57232 14.3102 8.53521 14.3594C8.51666 14.3901 8.51047 14.4332 8.51666 14.4701L10.904 20.3799H9.30214L6.84054 14.753H3.11101V20.3799H1.63281V7.4165H7.49614H7.50233ZM3.1172 13.4554H7.17452C8.28163 13.4554 9.24029 12.0902 9.24648 11.0509C9.25885 9.93784 8.21359 8.80631 7.08793 8.80631H3.23471C3.23471 8.80631 3.11101 8.91701 3.11101 8.92931V13.4554H3.1172Z" fill="#ACADAD"/>
<path d="M21.0721 15.7369H14.0213C14.0089 16.8192 14.1512 17.9569 15.0047 18.7133C16.1922 19.7649 17.9487 19.7526 18.9816 18.5104C19.1301 18.332 19.4702 17.6556 19.5692 17.6248C19.829 17.5387 20.5959 17.8401 20.9051 17.8585C20.5217 19.0884 19.3898 20.1892 18.1157 20.509C15.0789 21.2715 12.6111 19.4267 12.3699 16.3519C11.7947 8.91701 21.2639 8.39429 21.0659 15.7369H21.0721ZM14.1017 14.673H19.3094C19.5754 14.673 19.2785 13.6153 19.229 13.4493C19.0187 12.7913 18.6043 12.1517 17.9302 11.8873C15.9386 11.1001 14.0708 12.6498 14.1017 14.673Z" fill="#ACADAD"/>
<path d="M52.0712 20.3859H50.593V13.4983C50.593 13.0925 50.1539 12.3853 49.8013 12.1639C48.1066 11.1 45.9172 12.7665 45.9172 14.5561V20.3859H44.439V10.8479H45.8306V12.4775L46.3625 11.7457C47.4634 10.3559 49.523 10.0792 50.9084 11.223C51.8856 12.0286 52.0032 13.1109 52.065 14.3101C52.1701 16.3026 51.9784 18.3873 52.065 20.3859H52.0712Z" fill="#ACADAD"/>
<path d="M30.9122 20.386H29.5206V13.8244C29.5206 13.5968 29.3474 13.0311 29.236 12.8035C28.667 11.6536 27.0466 11.5859 26.0817 12.2808C25.2962 12.8466 24.7643 14.0089 24.7643 14.9621V20.386H23.2861V10.848H24.6777V12.4776C25.5498 11.2538 26.527 10.3683 28.1537 10.5282C29.5948 10.6696 30.9122 12.0225 30.9122 13.4923V20.3798V20.386Z" fill="#ACADAD"/>
<path d="M112.566 22.5259C115.677 22.1077 117.143 26.1665 114.465 27.7592C112.226 29.0875 109.542 26.9536 110.284 24.4999C110.581 23.5344 111.545 22.6673 112.566 22.5259Z" fill="#ACADAD"/>
<path d="M35.5882 8.23438V10.7188C35.5882 10.7188 35.6996 10.8418 35.7119 10.8418H37.722V11.9856H35.5882V18.3874C35.5882 18.4427 35.8233 18.9101 35.8789 18.9962C36.3675 19.6849 37.5551 19.5066 38.2911 19.4082C38.254 19.648 38.3838 20.4782 38.2168 20.5951C36.8438 20.7304 35.1058 20.8534 34.4255 19.3836C34.308 19.1376 34.11 18.5596 34.11 18.3074V11.9856H32.3906V10.8418H34.11L34.1966 8.40041L35.5882 8.23438Z" fill="#ACADAD"/>
<path d="M41.4142 10.8418H39.936V20.3798H41.4142V10.8418Z" fill="#ACADAD"/>
<path d="M41.495 7.41631V9.12589H39.9797C39.9797 9.12589 39.856 9.0152 39.856 9.0029V7.41016H41.495V7.41631Z" fill="#ACADAD"/>
</g>
<defs>
<clipPath id="clip0_577_1809">
<rect width="164" height="49" fill="white"/>
</clipPath>
</defs>
</svg>
