<svg width="260" height="27" viewBox="0 0 260 27" fill="none" xmlns="http://www.w3.org/2000/svg">
<path d="M81.4501 0.235208C81.9401 0.384225 81.6701 1.86446 81.7401 2.32145C82.8201 1.328 83.7201 0.443832 85.2801 0.265012C87.4301 0.00671489 92.9901 0.00671489 95.1501 0.265012C96.8001 0.463701 98.3001 1.6161 98.9801 3.08641L100.8 1.10944C101.43 0.741867 102.1 0.404094 102.84 0.294815C104.88 -0.00321962 110.79 0.0166494 112.87 0.265012C114.66 0.473636 117.18 2.44066 117.18 4.31828V19.1803H104.03V6.00715C104.03 4.26861 101.04 3.11621 99.8401 4.87461C99.7501 5.00376 99.4601 5.54023 99.4601 5.62964V19.1604H86.3101V6.1959C86.3101 6.00715 85.8001 4.7852 85.6301 4.59645C84.5401 3.40431 81.7301 4.1494 81.7301 5.62964V19.1604H68.5801V0.235208H81.4401H81.4501Z" fill="#ACADAD"/>
<path d="M227.45 0.285002C234.62 0.652578 242.62 -0.380609 249.7 0.225395C252.43 0.463823 254.11 2.41098 254.36 5.06349C254.56 7.19941 254.62 14.0741 254.04 15.902C253.56 17.4319 251.92 18.9718 250.27 19.1605C242.96 18.6737 234.8 19.8063 227.59 19.1605C225.33 18.9618 223.6 17.0743 223.33 14.8688C223.06 12.6634 223.08 6.99078 223.31 4.66611C223.54 2.34144 225.26 0.652578 227.45 0.265133V0.285002ZM238.11 4.06011C237.32 4.23893 236.62 5.29198 236.5 6.05694C236.26 7.4577 236.31 11.5308 236.46 13.0111C236.79 16.2597 240.52 16.2199 240.99 13.9151C241.24 12.6832 241.2 7.17954 241.04 5.81851C240.88 4.45749 239.46 3.76207 238.12 4.07004L238.11 4.06011Z" fill="#ACADAD"/>
<path d="M38.2499 0.285002C45.4199 0.652578 53.4199 -0.380609 60.4999 0.225395C62.6899 0.41415 64.8399 2.08314 65.1399 4.3184C65.4399 6.55366 65.4099 12.9018 65.1599 15.0874C64.9399 17.0445 63.0299 18.942 61.0599 19.1605C53.8099 18.6141 45.4999 19.8758 38.3799 19.1605C36.4399 18.9718 34.5499 17.1538 34.3099 15.2463C34.0199 12.8819 34.0199 6.65301 34.2899 4.2886C34.5099 2.35138 36.3099 0.543299 38.2499 0.265133V0.285002ZM48.0799 14.9384C49.3399 16.1206 51.6299 15.4152 51.9699 13.7264C52.2099 12.574 52.1699 7.28882 51.9999 6.02714C51.6399 3.35476 47.9099 3.34482 47.4899 5.67943C47.2499 7.02058 47.2699 12.1667 47.4399 13.5873C47.4899 14.0145 47.7799 14.6503 48.0799 14.9384Z" fill="#ACADAD"/>
<path d="M151.47 19.1702H138.32V16.8952L136.97 18.3059C136.36 18.6337 135.66 19.0609 134.96 19.1503C132.77 19.4483 127.16 19.3688 124.87 19.1702C120.47 18.7926 118.93 13.2095 122.51 10.5669C122.79 10.3583 123.85 9.70259 124.11 9.70259H138.3V6.20565C138.3 5.28174 137.26 4.12934 136.3 4.02006C134.06 3.7717 133.5 5.53011 133.72 7.42759H120.38V4.68567C120.38 2.71865 122.96 0.11581 125.04 0.235024C132.01 0.831093 140.31 -0.549801 147.13 0.264827C148.87 0.473451 151.44 2.49015 151.44 4.3181V19.1801L151.47 19.1702ZM134.76 13.5373C133.77 15.5739 135.89 16.1103 137.36 15.0871C138.62 14.2128 138.29 12.3551 138.32 11.0239L134.76 13.5373Z" fill="#ACADAD"/>
<path d="M220.06 7.42771H206.72C206.77 6.24551 206.9 4.86461 205.65 4.23874C204.3 3.55326 202.52 4.26854 202.34 5.81833C202.14 7.51712 202.17 11.6697 202.34 13.4083C202.5 15.0276 203.73 15.8323 205.29 15.3753C206.85 14.9183 206.82 13.3387 206.73 11.9777H220.07V14.9084C220.07 16.5873 217.89 18.9815 216.15 19.1504C208.79 18.6934 200.55 19.816 193.3 19.1703C190.74 18.9418 189.19 16.7562 189.01 14.3421C188.83 11.928 188.75 6.65282 189.1 4.38776C189.45 2.1227 191.34 0.423898 193.68 0.225208C200.72 -0.380796 208.64 0.67226 215.77 0.255011C217.61 0.284815 220.08 2.7287 220.08 4.49704V7.42771H220.06Z" fill="#ACADAD"/>
<path d="M167.76 0.235219C168.25 0.384236 167.98 1.86447 168.05 2.32146C168.81 1.39755 170.17 0.423974 171.4 0.255088C173.28 -0.00320905 179.95 0.00672546 181.78 0.324629C183.61 0.642533 185.77 2.65923 185.77 4.49712V7.42779H172.43C172.83 5.36142 171.7 3.38445 169.37 4.10967C169.04 4.20901 168.05 5.17266 168.05 5.44089V19.1604H154.71V0.523319C154.71 0.523319 154.98 0.235219 155 0.235219H167.77H167.76Z" fill="#ACADAD"/>
<path d="M13.15 0.23516L13.25 2.51016C13.94 1.32795 15.34 0.41398 16.7 0.255028C18.72 0.0166008 24.97 -0.0231372 26.92 0.274897C28.36 0.503391 30.87 2.63931 30.87 4.10961V7.41779H17.72C18.14 5.27194 16.63 3.23538 14.34 4.15928C13.99 4.29837 13.15 5.35142 13.15 5.61965V19.1504H0V0.23516H13.15Z" fill="#ACADAD"/>
<path d="M259.78 23.6108C259.78 25.2401 258.5 26.5117 256.82 26.5117C255.14 26.5117 253.85 25.2401 253.85 23.6108C253.85 21.9816 255.17 20.7397 256.82 20.7397C258.47 20.7397 259.78 22.0114 259.78 23.6108ZM254.59 23.6108C254.59 24.8824 255.54 25.8957 256.84 25.8957C258.14 25.8957 259.04 24.8824 259.04 23.6207C259.04 22.3591 258.11 21.3159 256.82 21.3159C255.53 21.3159 254.59 22.3491 254.59 23.6009V23.6108ZM256.37 25.1209H255.7V22.2498C255.96 22.2001 256.33 22.1604 256.81 22.1604C257.36 22.1604 257.6 22.2498 257.81 22.369C257.97 22.4882 258.09 22.7167 258.09 22.9949C258.09 23.3128 257.84 23.5512 257.49 23.6605V23.7002C257.77 23.8095 257.93 24.0181 258.02 24.3956C258.11 24.8328 258.16 25.0116 258.23 25.1109H257.51C257.42 25.0016 257.37 24.7433 257.28 24.4155C257.23 24.0976 257.05 23.9585 256.68 23.9585H256.36V25.1109L256.37 25.1209ZM256.38 23.4916H256.7C257.07 23.4916 257.37 23.3724 257.37 23.0744C257.37 22.8161 257.18 22.6372 256.75 22.6372C256.57 22.6372 256.45 22.6571 256.38 22.677V23.5015V23.4916Z" fill="#ACADAD"/>
</svg>
