<svg width="16" height="15" viewBox="0 0 16 15" fill="none" xmlns="http://www.w3.org/2000/svg">
<path d="M7.07787 0.414434C7.25748 -0.138352 8.03953 -0.138353 8.21914 0.414434L9.61337 4.70543C9.6937 4.95265 9.92407 5.12002 10.184 5.12002H14.6958C15.2771 5.12002 15.5187 5.86379 15.0485 6.20543L11.3984 8.85742C11.1881 9.0102 11.1001 9.28102 11.1804 9.52824L12.5746 13.8192C12.7542 14.372 12.1215 14.8317 11.6513 14.4901L8.00118 11.8381C7.79089 11.6853 7.50613 11.6853 7.29584 11.8381L3.6457 14.4901C3.17547 14.8317 2.54278 14.372 2.72239 13.8192L4.11662 9.52824C4.19694 9.28102 4.10895 9.0102 3.89866 8.85742L0.248516 6.20543C-0.221712 5.86379 0.0199528 5.12002 0.601187 5.12002H5.11301C5.37295 5.12002 5.60332 4.95265 5.68364 4.70543L7.07787 0.414434Z" fill="#F7C026"/>
</svg>
