<svg width="11" height="12" viewBox="0 0 11 12" fill="none" xmlns="http://www.w3.org/2000/svg">
<path d="M10.6027 1.72067V8.35067C10.6027 8.53067 10.5727 8.70067 10.5027 8.83067C10.4427 8.93067 10.3527 9.00067 10.2527 9.05067L10.1427 9.10067C9.97268 9.16067 9.79268 9.15067 9.63268 9.08067L9.56268 9.04067C9.41268 8.95067 9.31268 8.81067 9.27268 8.63067L9.25268 8.56067C9.25268 8.56067 9.24268 8.48067 9.24268 8.44067V3.21067C8.27268 4.17067 7.30268 5.13067 6.34268 6.09067L5.13268 7.29067C3.94268 8.47067 2.75268 9.65067 1.57268 10.8307H1.56268C1.49268 10.9007 1.40268 10.9907 1.29268 11.0507C1.20268 11.1207 1.09268 11.1507 0.972681 11.1507C0.802681 11.1507 0.652681 11.0707 0.522681 10.9507C0.412681 10.8407 0.332681 10.7107 0.312681 10.5707C0.282681 10.4307 0.312681 10.2807 0.392681 10.1607C0.462681 10.0407 0.562681 9.94067 0.652681 9.86067L8.29268 2.24067H7.78268C6.23268 2.23067 4.69268 2.23067 3.14268 2.22067H3.03268C2.82268 2.22067 2.65268 2.16067 2.51268 2.05067C2.38268 1.93067 2.30268 1.77067 2.29268 1.58067C2.28268 1.39067 2.34268 1.22067 2.45268 1.09067C2.57268 0.960668 2.74268 0.880668 2.93268 0.860668C3.10268 0.840668 3.27268 0.850668 3.41268 0.860668H3.63268C5.60268 0.870668 7.57268 0.870668 9.54268 0.870668H9.76268C10.0227 0.880668 10.2527 0.920668 10.4027 1.07067C10.5627 1.22067 10.6027 1.45067 10.6027 1.72067Z" fill="white"/>
</svg>
