<svg width="14" height="12" viewBox="0 0 14 12" fill="none" xmlns="http://www.w3.org/2000/svg">
<path d="M1.59085e-05 5.979C0.00140852 5.79036 0.103867 5.61239 0.317871 5.39551L1.91718 3.85835C2.97672 2.82358 4.03618 1.79875 5.09565 0.773915C5.29932 0.586761 5.47191 0.498671 5.65396 0.500015C5.7551 0.500762 5.85609 0.521366 5.9669 0.581761C6.14837 0.662536 6.27867 0.822369 6.32785 1.01139C6.37688 1.22027 6.32492 1.40854 6.20238 1.56651C6.14118 1.63557 6.09025 1.68483 6.03924 1.74403L4.81685 2.91661C4.12405 3.59661 3.42121 4.26662 2.72841 4.94663L2.35156 5.30131C3.71701 5.30147 5.08245 5.30162 6.44782 5.3117L13.184 5.32172C13.3053 5.32262 13.4166 5.32344 13.5378 5.34419C13.6589 5.37487 13.7596 5.43519 13.84 5.50529C13.9603 5.64519 14.0097 5.80443 13.9984 5.97314C13.996 6.29086 13.8222 6.53781 13.5285 6.60515C13.3967 6.64389 13.2652 6.64292 13.1338 6.64195L2.32144 6.64155L2.82355 7.1318C3.84761 8.16209 4.8716 9.2023 5.89558 10.2425L5.96594 10.3026C6.26708 10.6127 6.29472 10.9802 6.01952 11.2661C5.76454 11.5522 5.36988 11.5792 5.05819 11.3285C4.96768 11.2584 4.89747 11.1784 4.81714 11.0984C4.7871 11.0585 4.75697 11.0284 4.71673 10.9984L4.6968 10.9585C4.6968 10.9585 4.59633 10.8684 4.55623 10.8185C3.87355 10.1283 3.17071 9.42805 2.46786 8.7278C1.79515 8.05757 1.13255 7.38741 0.459756 6.7271L0.309149 6.57705C0.0983699 6.35704 -0.00145001 6.17758 1.59085e-05 5.979Z" fill="white"/>
</svg>
