<svg width="14" height="12" viewBox="0 0 14 12" fill="none" xmlns="http://www.w3.org/2000/svg">
<path d="M14 5.97976C14 6.1684 13.8989 6.34712 13.6864 6.56554L12.0984 8.11439C11.0465 9.15688 9.99458 10.1894 8.94265 11.222C8.74036 11.4106 8.56841 11.5 8.38634 11.5C8.2852 11.5 8.18405 11.4801 8.07279 11.4206C7.89072 11.3411 7.75923 11.1823 7.70866 10.9936C7.65808 10.7851 7.70866 10.5965 7.83003 10.4377C7.89072 10.3682 7.9413 10.3185 7.99187 10.2589L9.20563 9.07745C9.89343 8.39239 10.5913 7.71725 11.2791 7.03218L11.6534 6.67476C10.2879 6.68468 8.92242 6.69461 7.55694 6.69461L0.820549 6.73433C0.699173 6.73433 0.587911 6.73433 0.466535 6.71447C0.345158 6.68469 0.244011 6.62511 0.163094 6.55561C0.0417173 6.41662 -0.00885615 6.25776 0.00125854 6.08898C0.00125854 5.77126 0.173208 5.52305 0.466535 5.45355C0.598026 5.41384 0.729517 5.41384 0.861008 5.41384L11.6736 5.33441L11.1679 4.84792C10.1362 3.82528 9.10449 2.79272 8.07279 1.76016L8.00198 1.70059C7.69854 1.3928 7.6682 1.02545 7.9413 0.737523C8.19416 0.449597 8.58864 0.419812 8.90219 0.668024C8.99323 0.737523 9.06403 0.816951 9.14495 0.896379C9.17529 0.936093 9.20563 0.965878 9.24609 0.995664L9.26632 1.03538C9.26632 1.03538 9.36747 1.12473 9.40793 1.17438C10.0957 1.85944 10.8038 2.55444 11.5118 3.24943C12.1895 3.91464 12.857 4.57985 13.5347 5.23513L13.6864 5.38405C13.8989 5.60248 14 5.78119 14 5.97976Z" fill="white"/>
</svg>
