<svg width="24" height="23" viewBox="0 0 24 23" fill="none" xmlns="http://www.w3.org/2000/svg">
<path d="M12.2654 0.0803833C12.8445 0.140416 13.531 0.172078 14.2014 0.292827C14.802 0.400973 15.3911 0.58759 15.9741 0.77458C16.9421 1.08505 17.826 1.57717 18.6586 2.14994C19.3957 2.65708 20.0469 3.27169 20.641 3.94192C21.293 4.67741 21.8468 5.48347 22.2595 6.37552C22.5142 6.92619 22.7511 7.49095 22.9273 8.07023C23.0944 8.61947 23.1979 9.19211 23.2812 9.76146C23.3583 10.289 23.4169 10.8272 23.401 11.3581C23.3822 11.9862 23.3086 12.6176 23.196 13.2362C23.0893 13.8217 22.9214 14.3985 22.7441 14.9678C22.5322 15.6484 22.2101 16.2831 21.8435 16.8946C21.1776 18.0057 20.3482 18.9725 19.3499 19.8019C18.36 20.6244 17.2629 21.2558 16.0609 21.6991C15.0738 22.063 14.0513 22.2758 12.997 22.3519C12.3309 22.3999 11.6667 22.4007 11.0092 22.3205C10.3911 22.2451 9.77776 22.1115 9.1706 21.9683C8.35603 21.7762 7.59286 21.4417 6.85216 21.0545C6.79809 21.0263 6.71428 21.0244 6.65424 21.0429C6.0929 21.2158 5.53361 21.3955 4.97388 21.574C4.3173 21.7833 3.66141 21.9945 3.00446 22.2027C2.28146 22.432 1.55796 22.6598 0.833654 22.8848C0.758162 22.9083 0.675532 22.9086 0.596191 22.9196C0.611401 22.838 0.617672 22.7535 0.643187 22.6752C0.857121 22.0203 1.07174 21.3657 1.29175 20.7129C1.47924 20.1567 1.67573 19.6036 1.86526 19.0481C2.08249 18.4114 2.30089 17.775 2.50638 17.1345C2.53326 17.0505 2.51451 16.9267 2.46944 16.8488C1.9577 15.9643 1.5682 15.028 1.31472 14.0407C1.18764 13.5456 1.09011 13.0358 1.05032 12.5271C0.994011 11.8085 0.975138 11.084 0.995439 10.3636C1.00817 9.91356 1.09682 9.46049 1.19789 9.0194C1.32149 8.48022 1.47322 7.9452 1.64959 7.42079C1.95801 6.50403 2.42394 5.66475 2.97913 4.87408C3.59511 3.99712 4.32395 3.22345 5.1613 2.55924C5.98401 1.90658 6.8724 1.352 7.85813 0.975042C8.37589 0.777002 8.89831 0.578961 9.43457 0.444741C9.95494 0.314493 10.4944 0.255454 11.0281 0.185115C11.4026 0.13576 11.7814 0.119929 12.2654 0.0803833ZM3.46474 20.1193C3.67141 20.056 3.82934 20.009 3.98653 19.9594C4.51659 19.792 5.04627 19.6238 5.57607 19.4557C6.004 19.3199 6.43491 19.192 6.85793 19.0422C6.97049 19.0024 7.04356 19.0135 7.13755 19.0704C7.40233 19.2308 7.6653 19.3963 7.94188 19.5342C8.66091 19.8926 9.40924 20.1678 10.2011 20.3275C10.7956 20.4474 11.3914 20.5418 11.9977 20.5367C12.3983 20.5332 12.7991 20.5038 13.199 20.4751C14.1042 20.4101 14.9687 20.166 15.8002 19.8197C17.212 19.232 18.4115 18.3431 19.3897 17.1664C20.1665 16.232 20.736 15.1832 21.1036 14.0208C21.3343 13.2912 21.4609 12.5468 21.5155 11.7877C21.5625 11.1333 21.529 10.4801 21.4049 9.83664C21.3069 9.329 21.2082 8.81658 21.0469 8.32706C20.7101 7.30464 20.1961 6.37074 19.5253 5.52463C18.9291 4.77251 18.2325 4.12854 17.4396 3.59216C16.7694 3.1389 16.0491 2.78528 15.2829 2.5146C14.5159 2.24362 13.7298 2.07445 12.9247 2.01311C11.7481 1.92346 10.5888 2.03627 9.45419 2.38603C8.73534 2.6076 8.05189 2.90355 7.40667 3.28578C6.84949 3.61593 6.33198 3.99854 5.85202 4.43901C5.32414 4.9235 4.84748 5.44908 4.44712 6.03923C3.85852 6.90701 3.41147 7.84357 3.14557 8.86351C2.9859 9.47607 2.86819 10.0941 2.84752 10.7274C2.82275 11.4884 2.84019 12.2451 2.99161 12.9976C3.11559 13.6136 3.29289 14.2097 3.52812 14.7901C3.78204 15.4167 4.1107 16.0038 4.49989 16.5549C4.59034 16.683 4.59661 16.7862 4.54918 16.9231C4.24647 17.7963 3.94829 18.671 3.64999 19.5458C3.59045 19.7202 3.53644 19.8966 3.46474 20.1193Z" fill="white"/>
<path d="M6.69498 8.7782C6.66766 7.83487 7.04356 7.10162 7.67033 6.48621C7.79369 6.36509 7.97459 6.28636 8.14315 6.23167C8.34951 6.16462 8.57033 6.14103 8.78564 6.10304C9.14564 6.03953 9.40005 6.18864 9.56911 6.58584C9.84102 7.22473 10.1005 7.86887 10.3662 8.51044C10.3968 8.58431 10.4317 8.6567 10.4676 8.72822C10.5403 8.87256 10.533 9.01541 10.4707 9.1613C10.3141 9.52746 10.0561 9.8203 9.78776 10.1046C9.54185 10.3651 9.5352 10.4444 9.72543 10.7447C10.1164 11.3617 10.5555 11.9394 11.0949 12.4349C11.4896 12.7974 11.9139 13.1219 12.3935 13.3661C12.7119 13.5283 13.0352 13.6808 13.3569 13.8367C13.6224 13.9652 13.7859 13.9309 13.9742 13.7035C14.2228 13.4031 14.4711 13.1024 14.7154 12.7985C14.9923 12.4542 15.1108 12.414 15.508 12.5986C16.2054 12.9228 16.8982 13.2568 17.5905 13.5916C17.8624 13.7231 17.9542 13.8908 17.8983 14.191C17.8368 14.5204 17.7892 14.8611 17.6644 15.1681C17.4861 15.6066 17.0963 15.865 16.699 16.0953C16.1788 16.3968 15.6124 16.5582 15.0157 16.5163C14.669 16.492 14.321 16.3906 13.9887 16.2789C13.387 16.0767 12.7913 15.854 12.2031 15.6153C11.6259 15.3813 11.0917 15.0588 10.6108 14.6657C10.14 14.2808 9.67428 13.8822 9.25526 13.443C8.4229 12.5705 7.69647 11.6108 7.13985 10.5368C6.85061 9.97879 6.65289 9.38461 6.69498 8.7782Z" fill="white"/>
</svg>
